<svg width="260" height="36" viewBox="0 0 260 36" fill="none" xmlns="http://www.w3.org/2000/svg">
<path d="M69.4808 19.1499V21.8313H65.0778V35.7461H61.7472V21.8313H57.3159V19.1499H69.4808Z" fill="white"/>
<path d="M78.0611 27.9558C78.0611 27.0808 77.7506 26.4034 77.1579 25.8954C76.537 25.3873 75.8031 25.1333 74.9282 25.1333C74.1096 25.1333 73.404 25.3591 72.8677 25.8672C72.3032 26.3752 71.9363 27.0526 71.8234 27.9558H78.0611ZM81.4199 30.1856H71.7952C71.8799 31.1452 72.2186 31.8791 72.7831 32.4153C73.3758 32.9516 74.1096 33.2339 74.9564 33.2339C76.1983 33.2339 77.0732 32.6976 77.6095 31.625H81.1941C80.7989 32.8952 80.0933 33.9395 78.9925 34.758C77.92 35.5765 76.5934 35.9999 75.041 35.9999C73.7709 35.9999 72.6137 35.7177 71.6258 35.1532C70.6097 34.5887 69.8194 33.7984 69.2549 32.754C68.6905 31.7379 68.4082 30.5243 68.4082 29.1977C68.4082 27.8147 68.6905 26.6292 69.2549 25.5849C69.7912 24.5688 70.5815 23.7785 71.5694 23.214C72.5855 22.6495 73.7427 22.3955 75.041 22.3955C76.2829 22.3955 77.4119 22.6495 78.3998 23.1858C79.3877 23.7221 80.1498 24.5124 80.7143 25.5002C81.2505 26.4881 81.5328 27.6171 81.5328 28.9155C81.5328 29.3671 81.5045 29.8187 81.4199 30.1856Z" fill="white"/>
<path d="M90.9883 35.746L88.2787 31.6534L85.8796 35.746H82.2951L86.6135 29.1413L82.2668 22.5649H86.0208L88.7021 26.6575L91.1295 22.5649H94.6858L90.3674 29.1413L94.7422 35.746H90.9883Z" fill="white"/>
<path d="M120.06 32.6411C120.596 32.3589 121.019 31.9073 121.33 31.3146C121.669 30.7501 121.81 30.0162 121.81 29.1977C121.81 27.9276 121.471 26.9679 120.822 26.2905C120.173 25.6131 119.354 25.2744 118.423 25.2744C117.463 25.2744 116.673 25.6131 116.024 26.2905C115.374 26.9679 115.064 27.9276 115.064 29.1977C115.064 30.4396 115.374 31.3992 115.995 32.0766C116.616 32.754 117.407 33.0927 118.366 33.0927C118.959 33.0927 119.524 32.9516 120.06 32.6411ZM114.951 35.1532C113.935 34.5887 113.116 33.7984 112.552 32.754C111.959 31.7379 111.677 30.5243 111.677 29.1977C111.677 27.8429 111.987 26.6575 112.58 25.6131C113.173 24.597 113.991 23.7785 115.008 23.2423C116.052 22.6778 117.181 22.3955 118.451 22.3955C119.721 22.3955 120.878 22.6778 121.923 23.2423C122.939 23.7785 123.757 24.597 124.35 25.6131C124.943 26.6575 125.253 27.8429 125.253 29.1977C125.253 30.5243 124.943 31.7379 124.322 32.754C123.701 33.7984 122.882 34.5887 121.838 35.1532C120.822 35.7177 119.636 35.9999 118.366 35.9999C117.096 35.9999 115.967 35.7177 114.951 35.1532Z" fill="white"/>
<path d="M149.781 32.6411C150.317 32.3589 150.74 31.9073 151.051 31.3146C151.361 30.7501 151.531 30.0162 151.531 29.1977C151.531 27.9276 151.192 26.9679 150.543 26.2905C149.865 25.6131 149.075 25.2744 148.115 25.2744C147.184 25.2744 146.366 25.6131 145.745 26.2905C145.095 26.9679 144.757 27.9276 144.757 29.1977C144.757 30.4396 145.095 31.3992 145.716 32.0766C146.337 32.754 147.128 33.0927 148.087 33.0927C148.68 33.0927 149.244 32.9516 149.781 32.6411ZM144.644 35.1532C143.628 34.5887 142.837 33.7984 142.273 32.754C141.68 31.7379 141.398 30.5243 141.398 29.1977C141.398 27.8429 141.68 26.6575 142.273 25.6131C142.866 24.597 143.684 23.7785 144.728 23.2423C145.745 22.6778 146.902 22.3955 148.172 22.3955C149.442 22.3955 150.599 22.6778 151.615 23.2423C152.66 23.7785 153.45 24.597 154.071 25.6131C154.664 26.6575 154.946 27.8429 154.946 29.1977C154.946 30.5243 154.635 31.7379 154.043 32.754C153.422 33.7984 152.603 34.5887 151.559 35.1532C150.515 35.7177 149.357 35.9999 148.087 35.9999C146.817 35.9999 145.66 35.7177 144.644 35.1532Z" fill="white"/>
<path d="M216.42 32.3025C217.182 31.8509 217.774 31.2017 218.198 30.355C218.649 29.5365 218.847 28.5486 218.847 27.4478C218.847 26.3471 218.649 25.3592 218.198 24.5407C217.774 23.6939 217.182 23.073 216.42 22.6214C215.658 22.1698 214.783 21.944 213.795 21.944C212.779 21.944 211.904 22.1698 211.142 22.6214C210.351 23.073 209.759 23.6939 209.335 24.5407C208.912 25.3592 208.686 26.3471 208.686 27.4478C208.686 28.5486 208.912 29.5365 209.335 30.355C209.759 31.2017 210.351 31.8509 211.142 32.3025C211.904 32.7541 212.779 32.9799 213.795 32.9799C214.783 32.9799 215.658 32.7541 216.42 32.3025ZM209.504 34.871C208.206 34.1371 207.162 33.121 206.4 31.8227C205.638 30.5526 205.271 29.0849 205.271 27.4478C205.271 25.839 205.638 24.3713 206.4 23.073C207.162 21.7746 208.206 20.7868 209.504 20.0529C210.803 19.3191 212.242 18.9521 213.795 18.9521C215.347 18.9521 216.787 19.3191 218.085 20.0529C219.383 20.7868 220.399 21.7746 221.133 23.073C221.895 24.3713 222.262 25.839 222.262 27.4478C222.262 29.0849 221.895 30.5526 221.133 31.8227C220.399 33.121 219.355 34.1371 218.057 34.871C216.758 35.6048 215.347 35.9718 213.795 35.9718C212.242 35.9718 210.803 35.6048 209.504 34.871Z" fill="white"/>
<path d="M244.447 23.0731C245.181 21.7747 246.169 20.7869 247.467 20.053C248.737 19.3474 250.177 18.9805 251.757 18.9805C253.592 18.9805 255.229 19.4603 256.612 20.3917C258.023 21.3514 258.983 22.6779 259.547 24.3432H255.709C255.342 23.5529 254.805 22.9602 254.128 22.565C253.422 22.1699 252.632 21.9723 251.729 21.9723C250.769 21.9723 249.894 22.1981 249.132 22.6497C248.398 23.1013 247.806 23.7505 247.382 24.569C246.959 25.3875 246.761 26.3472 246.761 27.4762C246.761 28.5487 246.959 29.5366 247.382 30.3551C247.806 31.2018 248.398 31.8228 249.132 32.2744C249.894 32.726 250.769 32.9518 251.729 32.9518C252.632 32.9518 253.422 32.7542 254.128 32.3591C254.805 31.9639 255.342 31.343 255.709 30.5527H259.547C258.983 32.2462 258.023 33.5727 256.64 34.5324C255.257 35.4638 253.62 35.9436 251.757 35.9436C250.177 35.9436 248.737 35.5767 247.467 34.8429C246.169 34.1372 245.181 33.1211 244.447 31.851C243.713 30.5527 243.318 29.1132 243.318 27.4762C243.318 25.8391 243.713 24.3714 244.447 23.0731Z" fill="white"/>
<path d="M106.032 22.5933H109.363V35.7461H106.032V30.5245H100.105V35.7461H96.8025V22.5933H100.105V27.8149H106.032V22.5933Z" fill="white"/>
<path d="M166.32 22.5933V25.3311H160.337V35.7461H157.034V22.5933H166.32Z" fill="white"/>
<path d="M178.372 22.5933H181.167V35.7461H177.78V27.3633L171.345 35.7461H168.607V22.5933H171.937V30.9196L178.372 22.5933Z" fill="white"/>
<path d="M193.106 22.5933H195.9V35.7461H192.513V27.3633L186.078 35.7461H183.34V22.5933H186.671V30.9196L193.106 22.5933Z" fill="white"/>
<path d="M139.309 22.5933V35.7461H135.951V25.3311H132.055V30.214C132.055 34.4195 129.656 36.0848 126.298 35.7461V33.0929C127.906 33.3752 128.725 32.5002 128.725 30.1011V22.5933H139.309Z" fill="white"/>
<path d="M236.967 29.9599C236.29 30.6091 235.471 30.9478 234.512 30.9478V23.948C235.471 23.948 236.29 24.2585 236.967 24.9359C237.645 25.6133 237.955 26.4318 237.955 27.4479C237.955 28.4358 237.645 29.2826 236.967 29.9599ZM231.096 30.9478C230.137 30.9478 229.318 30.6091 228.641 29.9599C227.963 29.2826 227.653 28.4358 227.653 27.4479C227.653 26.4318 227.963 25.6133 228.641 24.9359C229.318 24.2585 230.137 23.948 231.096 23.948V30.9478ZM239.282 22.6779C237.983 21.3796 236.403 20.7304 234.512 20.7304V18.9805H231.096V20.7304C229.205 20.7304 227.625 21.3796 226.326 22.6779C225.028 23.9763 224.379 25.5569 224.379 27.4479C224.379 29.339 225.028 30.9196 226.326 32.2179C227.625 33.5163 229.205 34.1655 231.096 34.1655V35.9436H234.512V34.1655C236.403 34.1655 237.983 33.5163 239.282 32.2179C240.58 30.9196 241.229 29.339 241.229 27.4479C241.229 25.5569 240.58 23.9763 239.282 22.6779Z" fill="white"/>
<path d="M38.7159 19.1499L3.74522 19.1781C1.23321 19.1781 -0.544959 21.5772 0.160663 23.9764L2.84203 32.9801C3.32185 34.5607 4.78954 35.6332 6.42659 35.6332L41.4254 35.605C43.9092 35.605 45.6874 33.2059 44.9818 30.8068L42.3004 21.8313C41.8206 20.2224 40.3811 19.1499 38.7159 19.1499Z" fill="#0078BE"/>
<path d="M37.7279 15.8474L8.45868 35.0121C6.37004 36.3952 3.54755 35.3508 2.84192 32.9517L0.160561 23.948C-0.319262 22.3674 0.301685 20.6739 1.6847 19.7707L30.9539 0.606009C33.0425 -0.748785 35.865 0.267311 36.5707 2.66643L39.252 11.6702C39.7318 13.2508 39.1109 14.9443 37.7279 15.8474Z" fill="#03BE93"/>
</svg>
