<svg width="231" height="32" xmlns="http://www.w3.org/2000/svg" fill="none">

 <g>
  <title>Layer 1</title>
  <path id="svg_1" fill="#07302D" d="m61.7608,9.022l0,2.3834l-3.9139,0l0,12.3688l-2.9605,0l0,-12.3688l-3.9389,0l0,-2.3834l10.8133,0z"/>
  <path id="svg_2" fill="#07302D" d="m69.3877,16.8497c0,-0.7777 -0.2759,-1.3799 -0.8028,-1.8315c-0.552,-0.4516 -1.2043,-0.6774 -1.982,-0.6774c-0.7276,0 -1.3548,0.2007 -1.8315,0.6523c-0.5018,0.4516 -0.8279,1.0538 -0.9283,1.8566l5.5446,0zm2.9856,1.982l-8.5553,0c0.0753,0.8531 0.3764,1.5054 0.8781,1.982c0.5269,0.4767 1.1792,0.7276 1.9319,0.7276c1.1039,0 1.8816,-0.4767 2.3583,-1.43l3.1863,0c-0.3512,1.129 -0.9785,2.0572 -1.9569,2.7848c-0.9534,0.7276 -2.1326,1.1039 -3.5125,1.1039c-1.129,0 -2.1576,-0.2509 -3.0357,-0.7526c-0.9032,-0.5018 -1.6057,-1.2043 -2.1075,-2.1326c-0.5017,-0.9032 -0.7526,-1.982 -0.7526,-3.1612c0,-1.2293 0.2509,-2.2831 0.7526,-3.2113c0.4767,-0.9032 1.1792,-1.6057 2.0573,-2.1075c0.9032,-0.5018 1.9319,-0.7276 3.0859,-0.7276c1.1039,0 2.1075,0.2258 2.9856,0.7025c0.87811,0.4767 1.5555,1.1792 2.0573,2.0573c0.4767,0.8781 0.7276,1.8817 0.7276,3.0357c0,0.4015 -0.0251,0.8029 -0.1004,1.129z"/>
  <path id="svg_3" fill="#07302D" d="m80.8787,23.7743l-2.4086,-3.6378l-2.1325,3.6378l-3.1863,0l3.8386,-5.8708l-3.8637,-5.8456l3.3368,0l2.3835,3.6378l2.1576,-3.6378l3.1612,0l-3.8386,5.8456l3.8888,5.8708l-3.3368,0z"/>
  <path id="svg_4" fill="#07302D" d="m106.72,21.0145c0.476,-0.2509 0.853,-0.6524 1.129,-1.1792c0.301,-0.5018 0.426,-1.1541 0.426,-1.8817c0,-1.129 -0.301,-1.982 -0.878,-2.5841c-0.577,-0.6022 -1.305,-0.9032 -2.132,-0.9032c-0.853,0 -1.556,0.301 -2.133,0.9032c-0.577,0.6021 -0.853,1.4551 -0.853,2.5841c0,1.1039 0.276,1.957 0.828,2.5591c0.55199,0.6021 1.254,0.9032 2.10699,0.9032c0.527,0 1.029,-0.1255 1.506,-0.4014zm-4.541,2.2329c-0.904,-0.5018 -1.631,-1.2043 -2.133,-2.1326c-0.52679,-0.9032 -0.77769,-1.982 -0.77769,-3.1612c0,-1.2042 0.27599,-2.258 0.8027,-3.1863c0.527,-0.9031 1.255,-1.6307 2.158,-2.1074c0.928,-0.5018 1.93201,-0.7527 3.061,-0.7527c1.129,0 2.157,0.2509 3.086,0.7527c0.903,0.4767 1.63,1.2043 2.157,2.1074c0.527,0.9283 0.803,1.9821 0.803,3.1863c0,1.1792 -0.276,2.258 -0.828,3.1612c-0.552,0.9283 -1.27901,1.6308 -2.208,2.1326c-0.903,0.5017 -1.957,0.7526 -3.08601,0.7526c-1.129,0 -2.132,-0.2509 -3.035,-0.7526z"/>
  <path id="svg_5" fill="#07302D" d="m133.13901,21.0145c0.476,-0.2509 0.853,-0.6524 1.129,-1.1792c0.276,-0.5018 0.42599,-1.1541 0.42599,-1.8817c0,-1.129 -0.30099,-1.982 -0.87801,-2.5841c-0.60199,-0.6022 -1.30499,-0.9032 -2.15799,-0.9032c-0.828,0 -1.55501,0.301 -2.10701,0.9032c-0.577,0.6021 -0.87799,1.4551 -0.87799,2.5841c0,1.1039 0.30099,1.957 0.853,2.5591c0.552,0.6021 1.254,0.9032 2.10699,0.9032c0.52701,0 1.02901,-0.1255 1.50601,-0.4014zm-4.567,2.2329c-0.90301,-0.5018 -1.605,-1.2043 -2.10701,-2.1326c-0.52699,-0.9032 -0.778,-1.982 -0.778,-3.1612c0,-1.2042 0.25101,-2.258 0.778,-3.1863c0.527,-0.9031 1.25401,-1.6307 2.183,-2.1074c0.903,-0.5018 1.93201,-0.7527 3.061,-0.7527c1.129,0 2.157,0.2509 3.06,0.7527c0.929,0.4767 1.631,1.2043 2.183,2.1074c0.52701,0.9283 0.778,1.9821 0.778,3.1863c0,1.1792 -0.276,2.258 -0.80299,3.1612c-0.552,0.9283 -1.27901,1.6308 -2.20801,2.1326c-0.92799,0.5017 -1.957,0.7526 -3.086,0.7526c-1.129,0 -2.157,-0.2509 -3.06099,-0.7526z"/>
  <path id="svg_6" fill="#07302D" d="m192.373,20.7134c0.677,-0.4014 1.20399,-0.9784 1.58099,-1.7311c0.401,-0.7276 0.57701,-1.6057 0.57701,-2.5841c0,-0.9785 -0.17601,-1.8566 -0.57701,-2.5842c-0.377,-0.7526 -0.90399,-1.3046 -1.58099,-1.706c-0.677,-0.4014 -1.455,-0.6022 -2.33301,-0.6022c-0.903,0 -1.681,0.2008 -2.35899,0.6022c-0.702,0.4014 -1.229,0.9534 -1.605,1.706c-0.377,0.7276 -0.57701,1.6057 -0.57701,2.5842c0,0.9784 0.20001,1.8565 0.57701,2.5841c0.37599,0.7527 0.903,1.3297 1.605,1.7311c0.67799,0.4015 1.45599,0.6022 2.35899,0.6022c0.87801,0 1.65601,-0.2007 2.33301,-0.6022zm-6.147,2.2831c-1.15399,-0.6523 -2.082,-1.5555 -2.75999,-2.7096c-0.677,-1.129 -1.00301,-2.4336 -1.00301,-3.8887c0,-1.4301 0.326,-2.7347 1.00301,-3.8888c0.67799,-1.1541 1.606,-2.0322 2.75999,-2.6845c1.15401,-0.6523 2.43401,-0.9785 3.814,-0.9785c1.38,0 2.65901,0.3262 3.813,0.9785c1.15401,0.6523 2.05701,1.5304 2.71001,2.6845c0.677,1.1541 1.00299,2.4587 1.00299,3.8888c0,1.4551 -0.32599,2.7597 -1.00299,3.8887c-0.653,1.1541 -1.58101,2.0573 -2.735,2.7096c-1.15401,0.6523 -2.408,0.9785 -3.78801,0.9785c-1.37999,0 -2.65999,-0.3262 -3.814,-0.9785z"/>
  <path id="svg_7" fill="#07302D" d="m217.286,12.5095c0.65201,-1.1541 1.53,-2.0322 2.685,-2.6845c1.12901,-0.6273 2.408,-0.9534 3.813,-0.9534c1.631,0 3.086,0.4265 4.315,1.2544c1.255,0.853 2.108,2.0322 2.61,3.5125l-3.41299,0c-0.326,-0.7025 -0.802,-1.2294 -1.405,-1.5806c-0.627,-0.3513 -1.32901,-0.5269 -2.132,-0.5269c-0.853,0 -1.631,0.2007 -2.308,0.6021c-0.653,0.4014 -1.179,0.9785 -1.556,1.7061c-0.37601,0.7275 -0.552,1.5806 -0.552,2.5841c0,0.9534 0.17599,1.8315 0.552,2.5591c0.377,0.7526 0.903,1.3046 1.556,1.706c0.677,0.4014 1.455,0.6021 2.308,0.6021c0.80299,0 1.505,-0.1756 2.132,-0.5268c0.603,-0.3513 1.07899,-0.9032 1.405,-1.6057l3.41299,0c-0.502,1.5053 -1.355,2.6845 -2.58501,3.5375c-1.22899,0.8279 -2.68399,1.2544 -4.34,1.2544c-1.405,0 -2.68399,-0.3261 -3.813,-0.9784c-1.155,-0.6272 -2.03299,-1.5304 -2.685,-2.6594c-0.65199,-1.1541 -1.004,-2.4336 -1.004,-3.8888c0,-1.4551 0.35201,-2.7598 1.004,-3.9138z"/>
  <path id="svg_8" fill="#07302D" d="m94.2507,12.0828l2.9604,0l0,11.6913l-2.9604,0l0,-4.6414l-5.2687,0l0,4.6414l-2.9354,0l0,-11.6913l2.9354,0l0,4.6414l5.2687,0l0,-4.6414z"/>
  <path id="svg_9" fill="#07302D" d="m147.84,12.0828l0,2.4336l-5.31799,0l0,9.2577l-2.936,0l0,-11.6913l8.254,0z"/>
  <path id="svg_10" fill="#07302D" d="m158.554,12.0828l2.483,0l0,11.6913l-3.01001,0l0,-7.4513l-5.72099,7.4513l-2.433,0l0,-11.6913l2.95999,0l0,7.4012l5.72101,-7.4012z"/>
  <path id="svg_11" fill="#07302D" d="m171.64999,12.0828l2.48401,0l0,11.6913l-3.011,0l0,-7.4513l-5.72,7.4513l-2.43401,0l0,-11.6913l2.96001,0l0,7.4012l5.72099,-7.4012z"/>
  <path id="svg_12" fill="#07302D" d="m123.83,12.0828l0,11.6913l-2.985,0l0,-9.2577l-3.462,0l0,4.3403c0,3.7383 -2.133,5.2185 -5.119,4.9174l0,-2.3583c1.43,0.2509 2.158,-0.5269 2.158,-2.6594l0,-6.6736l9.408,0z"/>
  <path id="svg_13" fill="#07302D" d="m210.638,18.6311c-0.603,0.5771 -1.33,0.8781 -2.183,0.8781l0,-6.222c0.853,0 1.58,0.276 2.183,0.8781c0.60201,0.6021 0.87801,1.3297 0.87801,2.2329c0,0.8781 -0.276,1.6308 -0.87801,2.2329zm-5.21899,0.8781c-0.85301,0 -1.58,-0.301 -2.18301,-0.8781c-0.60199,-0.6021 -0.87799,-1.3548 -0.87799,-2.2329c0,-0.9032 0.276,-1.6308 0.87799,-2.2329c0.60301,-0.6021 1.33,-0.8781 2.18301,-0.8781l0,6.222zm7.276,-7.351c-1.15401,-1.1541 -2.55901,-1.7311 -4.24001,-1.7311l0,-1.5555l-3.036,0l0,1.5555c-1.681,0 -3.08601,0.577 -4.24001,1.7311c-1.15401,1.1541 -1.731,2.5591 -1.731,4.24c0,1.681 0.577,3.0859 1.731,4.24c1.15399,1.1541 2.55901,1.7311 4.24001,1.7311l0,1.5806l3.036,0l0,-1.5806c1.681,0 3.086,-0.577 4.24001,-1.7311c1.15399,-1.1541 1.73099,-2.559 1.73099,-4.24c0,-1.6809 -0.577,-3.0859 -1.73099,-4.24z"/>
  <path id="svg_14" fill="#0078BE" d="m34.4139,17.022l-31.085,0.0251c-2.2329,0 -3.8135,2.1325 -3.18628,4.2651l2.38344,8.0033c0.42651,1.405 1.73112,2.3583 3.18627,2.3583l31.11007,-0.0251c2.2079,0 3.7884,-2.1325 3.1612,-4.2651l-2.3834,-7.9782c-0.4265,-1.4301 -1.706,-2.3834 -3.1863,-2.3834z"/>
  <path id="svg_15" fill="#03BE93" d="m33.5359,14.0866l-26.01708,17.0353c-1.85657,1.2294 -4.36544,0.3011 -4.99266,-1.8315l-2.38344,-8.0033c-0.42651,-1.405 0.12544,-2.9103 1.3548,-3.7131l26.01708,-17.03532c1.8566,-1.20427 4.3654,-0.30107 4.9927,1.83148l2.3834,8.00334c0.4265,1.405 -0.1255,2.9103 -1.3548,3.7131z"/>
 </g>
</svg>